<svg width="86" height="86" viewBox="0 0 86 86" fill="none" xmlns="http://www.w3.org/2000/svg">
<path d="M28.8579 14.7157L35.9289 7.64466C39.8342 3.73942 46.1658 3.73942 50.0711 7.64466L78.3553 35.9289C82.2606 39.8342 82.2606 46.1658 78.3553 50.0711V50.0711C74.4501 53.9763 68.1184 53.9763 64.2132 50.0711L28.8579 14.7157Z" fill="#BFACE0"/>
<path d="M14.7157 28.8579L28.8579 14.7157L50.0711 35.9289C53.9763 39.8342 53.9763 46.1658 50.0711 50.0711V50.0711C46.1658 53.9763 39.8342 53.9763 35.9289 50.0711L14.7157 28.8579Z" fill="#A084CA"/>
<path d="M7.64466 50.0711C3.73942 46.1658 3.73942 39.8342 7.64466 35.9289L14.7157 28.8579L50.0711 64.2132C53.9763 68.1184 53.9763 74.4501 50.0711 78.3553V78.3553C46.1658 82.2606 39.8342 82.2606 35.9289 78.3553L7.64466 50.0711Z" fill="#645CAA"/>
</svg>
